<?xml version="1.0" encoding="utf-8"?>
<!DOCTYPE svg PUBLIC "-//W3C//DTD SVG 1.1//EN" "http://www.w3.org/Graphics/SVG/1.1/DTD/svg11.dtd">
<svg xmlns="http://www.w3.org/2000/svg" xmlns:xlink="http://www.w3.org/1999/xlink" version="1.1" baseProfile="full" width="81.92" height="81.92" viewBox="0 0 81.92 81.92" enable-background="new 0 0 81.92 81.92" xml:space="preserve">
	<rect x="1.0252e-005" y="7.62939e-006" fill="#3636FF" fill-opacity="1" stroke-width="0" stroke-linejoin="round" stroke="#000000" stroke-opacity="1" width="81.92" height="81.92"/>
	<path fill="#FFFFDD" fill-opacity="1" stroke-width="0.32" stroke-linejoin="round" d="M 20.9391,53.6987C 19.9476,53.0828 18.1453,51.8886 15.9722,52.3515C 13.7991,52.8143 11.2552,54.9342 10.6192,58.3261C 9.98327,61.718 11.2552,66.3818 14.4351,67.8658C 17.615,69.3497 22.7028,67.6538 25.2467,64.0499C 27.7906,60.4461 27.7906,54.9342 28.4266,47.9385C 29.0626,40.9428 30.3345,32.4631 31.6065,27.5872C 32.8784,22.7114 34.1504,21.4395 38.3763,20.0565C 42.6023,18.6736 49.7822,17.1797 53.8879,16.2207C 57.9937,15.2618 59.0252,14.8378 59.2372,18.4417C 59.4492,22.0455 58.8416,29.6772 58.1956,36.6667C 57.5495,43.6561 56.865,50.0033 56.4093,53.168C 55.9536,56.3327 55.7268,56.3149 54.749,55.4231C 53.7713,54.5314 52.0425,52.7657 49.9337,52.8829C 47.8249,53 45.336,55 44.2004,57.5C 43.0647,60 43.2824,63 44.6412,65.3895C 46,67.779 48.5,69.5581 51.3867,69.5581C 54.2735,69.5581 57.547,67.779 59.3886,63.8036C 61.2303,59.8282 61.6401,53.6564 62.2848,44.3151C 62.9295,34.9738 63.809,22.4631 63.9166,16.2077C 64.0242,9.95231 63.3598,9.95231 57.4221,11.0189C 51.4845,12.0854 40.2735,14.2185 34.2441,15.9211C 28.2146,17.6236 27.3666,18.8956 26.3067,25.1922C 25.2467,31.4888 23.9748,42.8101 23.2704,48.5139C 22.566,54.2176 22.4293,54.3038 22.2704,54.3281C 22.1116,54.3524 21.9307,54.3147 20.9391,53.6987 Z "/>
	<path fill="#FFFFDD" fill-opacity="1" stroke-width="0.32" stroke-linejoin="round" d="M 27,66C 26.75,66.75 26.75,67.75 27.25,68.5C 27.75,69.25 28.75,69.75 29.75,69.75C 30.75,69.75 31.75,69.25 32,68.25C 32.25,67.25 31.75,65.75 31,65C 30.25,64.25 29.25,64.25 28.5,64.5C 27.75,64.75 27.25,65.25 27,66 Z "/>
	<path fill="#FFFFDD" fill-opacity="1" stroke-width="0.32" stroke-linejoin="round" d="M 57.1578,21.9016C 55.1229,22.3866 51.1229,23.1483 48.8729,23.8983C 46.6229,24.6483 46.1229,25.3866 46,26.2558C 45.8771,27.125 46.1314,28.125 46.6314,28.625C 47.1314,29.125 47.8771,29.125 50,28.625C 52.1229,28.125 55.6229,27.125 57.2691,27.1657C 58.9152,27.2063 58.7076,28.2877 58.8538,29.1835C 59,30.0794 59.5,30.7897 60.1038,29.749C 60.7076,28.7083 61.4152,25.9167 61.4152,23.6667C 61.4152,21.4167 60.7076,19.7083 60.2425,19.3542C 59.7774,19 59.5548,20 59.4086,20.6042C 59.2624,21.2083 59.1926,21.4167 57.1578,21.9016 Z "/>
</svg>
